<svg width="567" height="121" viewBox="0 0 567 121" fill="none" xmlns="http://www.w3.org/2000/svg">
<path d="M218.547 5.16602H199.938C199.761 5.16602 199.616 5.31084 199.616 5.48785V27.0186H181.513V9.691C181.513 9.51399 181.368 9.36917 181.191 9.36917H162.982C162.804 9.36917 162.66 9.51399 162.66 9.691V23.5427H143.452V9.691C143.452 9.51399 143.308 9.36917 143.131 9.36917H124.924C124.747 9.36917 124.603 9.51399 124.603 9.691V65.5292C124.603 66.7747 125.61 67.7821 126.855 67.7821H179.257C180.502 67.7821 181.51 66.7747 181.51 65.5292V43.9921H199.613V82.6894C199.613 82.8664 199.758 83.0112 199.935 83.0112H218.543C218.72 83.0112 218.865 82.8664 218.865 82.6894V5.48785C218.865 5.31084 218.72 5.16602 218.543 5.16602H218.547ZM162.663 51.5037H143.456V39.2225H162.663V51.5037Z" fill="black"/>
<path d="M218.544 96.1311H158.924V78.6041C158.924 78.4271 158.779 78.2822 158.602 78.2822H138.745C138.568 78.2822 138.423 78.4271 138.423 78.6041V111.981C138.423 113.227 139.43 114.234 140.676 114.234H218.544C218.721 114.234 218.866 114.089 218.866 113.912V96.4498C218.866 96.2727 218.721 96.1279 218.544 96.1279V96.1311Z" fill="black"/>
<path d="M284.475 10.0885H239.402C239.225 10.0885 239.08 10.2333 239.08 10.4103V27.4546C239.08 27.6316 239.225 27.7765 239.402 27.7765H266.649C266.256 40.9652 257.293 60.8417 232.396 75.3757C232.235 75.4691 232.187 75.6783 232.29 75.8327L242.826 91.3645C242.923 91.5061 243.116 91.5479 243.261 91.4578C269.635 75.4111 286.725 52.0943 286.725 14.9964V12.3349C286.725 11.0894 285.718 10.082 284.472 10.082L284.475 10.0885Z" fill="black"/>
<path d="M532.404 68.9694C519.663 71.3703 502.316 72.5707 490.479 72.5707V56.1733H520.976C521.153 56.1733 521.298 56.0284 521.298 55.8514V40.1331C521.298 39.956 521.153 39.8112 520.976 39.8112H490.479V26.674H525.858C526.035 26.674 526.18 26.5291 526.18 26.3521V10.4117C526.18 10.2347 526.035 10.0898 525.858 10.0898H474.133C472.887 10.0898 471.88 11.0972 471.88 12.3427V86.5448C471.88 87.7903 472.887 88.7976 474.133 88.7976H479.07C499.139 88.7976 520.191 87.7291 535.098 85.0547C535.272 85.0225 535.385 84.8583 535.356 84.6846L532.778 69.2333C532.749 69.0563 532.581 68.9372 532.404 68.9694Z" fill="black"/>
<path d="M338.273 5.16602H320.607C320.43 5.16602 320.285 5.31084 320.285 5.48785V39.8115H311.686V5.48785C311.686 5.31084 311.541 5.16602 311.364 5.16602H293.618C293.441 5.16602 293.296 5.31084 293.296 5.48785V113.92C293.296 114.097 293.441 114.242 293.618 114.242H311.364C311.541 114.242 311.686 114.097 311.686 113.92V56.1767H320.285V113.92C320.285 114.097 320.43 114.242 320.607 114.242H338.273C338.45 114.242 338.594 114.097 338.594 113.92V5.48785C338.594 5.31084 338.45 5.16602 338.273 5.16602Z" fill="black"/>
<path d="M564.102 5.16602H545.623C545.446 5.16602 545.301 5.31084 545.301 5.48785V39.8115H529.618C529.441 39.8115 529.296 39.9563 529.296 40.1333V55.8517C529.296 56.0287 529.441 56.1735 529.618 56.1735H545.301V113.917C545.301 114.094 545.446 114.239 545.623 114.239H564.102C564.279 114.239 564.424 114.094 564.424 113.917V5.48785C564.424 5.31084 564.279 5.16602 564.102 5.16602Z" fill="black"/>
<path d="M459.047 27.7348H444.77V5.47027C444.77 5.29326 444.625 5.14844 444.448 5.14844H426.979C426.802 5.14844 426.657 5.29326 426.657 5.47027V63.4455C426.657 63.6225 426.802 63.7673 426.979 63.7673H444.448C444.625 63.7673 444.77 63.6225 444.77 63.4455V44.7115H459.047C459.224 44.7115 459.369 44.5667 459.369 44.3897V28.0534C459.369 27.8764 459.224 27.7315 459.047 27.7315V27.7348Z" fill="black"/>
<path d="M390.768 48.8437C395.949 52.1103 403.693 56.7576 412.36 61.1603C412.518 61.2408 412.714 61.1764 412.794 61.0187L420.518 45.7606C420.599 45.6029 420.534 45.4098 420.377 45.3293C413.473 41.8213 407.111 38.088 402.386 35.1722C406.94 28.1788 410.178 20.458 411.781 12.4089C412.057 11.0153 410.992 9.71191 409.57 9.71191H359.289C359.112 9.71191 358.967 9.85674 358.967 10.0337V25.9613C358.967 26.1383 359.112 26.2832 359.289 26.2832H387.849C384.498 30.7792 378.499 36.4595 370.605 41.6958C364.236 45.9215 356.692 49.983 349.779 53.1466C349.608 53.2239 349.541 53.4331 349.634 53.5972L358.166 68.6784C358.246 68.8232 358.427 68.8843 358.578 68.8135C368.925 64.1437 381.081 57.6877 390.662 48.9467C390.7 48.9113 390.736 48.8791 390.771 48.8437H390.768Z" fill="black"/>
<path d="M408.141 66.0762C387.859 66.0762 374.802 77.0668 374.802 92.8045C374.802 108.542 385.615 119.536 408.141 119.536C430.666 119.536 441.48 108.545 441.48 92.8045C441.48 77.0636 428.42 66.0762 408.141 66.0762ZM408.141 103.213C401.17 103.213 392.957 99.9299 392.957 92.8045C392.957 85.6791 401.17 82.3996 408.141 82.3996C415.112 82.3996 423.325 85.6823 423.325 92.8045C423.325 99.9267 415.112 103.213 408.141 103.213Z" fill="black"/>
<path d="M98.8464 44.2985L60.221 45.4854L67.2584 7.9374C68.2651 2.61108 61.5493 -0.57635 58.0499 3.55669L4.86394 66.35C1.91131 69.8365 4.47798 75.1757 9.04845 75.0374L47.6739 73.8506L40.6365 111.399C39.6297 116.725 46.3455 119.912 49.8482 115.779L103.037 52.9827C105.993 49.4962 103.423 44.157 98.8529 44.2953L98.8464 44.2985Z" fill="black"/>
</svg>
